<?xml version="1.0" encoding="utf-8"?>
<svg viewBox="0 0 109 109" xmlns="http://www.w3.org/2000/svg">
  <g id="kvg:StrokePaths_04fdd-Kaisho" style="fill:none;stroke-width:3;stroke-linecap:round;stroke-linejoin:round;" transform="matrix(1, 0, 0, 1, -8.881784197001252e-16, 0)">
    <g id="kvg:04fdd-Kaisho">
      <g id="kvg:04fdd-Kaisho-g1">
        <path id="kvg:04fdd-Kaisho-s1" d="M31.75,17.5c0.25,2-0.25,4.54-0.87,6.33C27,35,22.75,46.5,11,59.79" style="stroke: rgb(0, 0, 0);"/>
        <path id="kvg:04fdd-Kaisho-s2" d="M26.03,42c0.59,0.61,0.7,1.97,0.76,3.23c0.56,11.77-1.02,40.29-0.54,47.52" style="stroke: rgb(0, 0, 0);"/>
      </g>
      <g id="kvg:04fdd-Kaisho-g2">
        <g id="kvg:04fdd-Kaisho-g3">
          <path id="kvg:04fdd-Kaisho-s3" d="M44.44,16.64c0.39,0.43,0.79,0.79,0.96,1.33c1.35,4.27,2.86,14.58,3.79,22.25" style="stroke: rgb(0, 0, 0);"/>
          <path id="kvg:04fdd-Kaisho-s4" d="M45.69,18.61c10.33-1.31,28.87-3.3,33.43-3.86c1.67-0.21,2.67,1.22,2.43,2.42c-0.99,4.99-2.65,10.44-4.12,17.34" style="stroke: rgb(0, 0, 0);"/>
          <path id="kvg:04fdd-Kaisho-s5" d="M49.37,38.33c5.37-0.63,23.37-2.23,30.74-3.2" style="stroke: rgb(0, 0, 0);"/>
        </g>
        <g id="kvg:04fdd-Kaisho-g4">
          <path id="kvg:04fdd-Kaisho-s6" d="M36.11,56.94c1.22,0,3.05,0.3,4.68,0.19c7.38-0.49,37.34-2.83,48.53-3.77c1.62-0.14,2.03-0.19,3.05,0" style="stroke: rgb(0, 0, 0);"/>
          <path id="kvg:04fdd-Kaisho-s7" d="M62.1,43.02c0.98,0.46,1.77,2.99,1.77,3.95c0,6.5-0.2,40.7-0.2,41.53c0,11.5-4.54,2.38-5.92,1" style="stroke: rgb(0, 0, 0);"/>
          <path id="kvg:04fdd-Kaisho-s8" d="M54.88,63.82c-2.75,7.65-9.65,18.47-15.38,22.8" style="stroke: rgb(0, 0, 0);"/>
          <path id="kvg:04fdd-Kaisho-s9" d="M71.67,62.38C77.75,66.5,88.5,80,91.68,86.97" style="stroke: rgb(0, 0, 0);"/>
        </g>
      </g>
    </g>
  </g>
</svg>